<svg xmlns="http://www.w3.org/2000/svg" viewBox="0 0 150 86"><title>cart</title><path d="M83.55,62.07H20.38a2.76,2.76,0,0,1-2.6-1.82L1.92,16.55a2.76,2.76,0,0,1,2.6-3.7h91a2.76,2.76,0,0,1,0,5.52H8.45L22.31,56.54H81.94l29-51.47a2.76,2.76,0,0,1,2.41-1.41H146a2.76,2.76,0,0,1,0,5.52h-31L86,60.66A2.76,2.76,0,0,1,83.55,62.07Z" style="fill:#fff"/><path d="M138.74,25.4H114.8a2.76,2.76,0,0,1,0-5.52h23.94a2.76,2.76,0,0,1,0,5.52Z" style="fill:#fff"/><path d="M130.31,39H106.38a2.76,2.76,0,0,1,0-5.52h23.94a2.76,2.76,0,0,1,0,5.52Z" style="fill:#fff"/><path d="M33.18,84.61a10,10,0,1,1,10-10A10,10,0,0,1,33.18,84.61Zm0-14.47a4.47,4.47,0,1,0,4.48,4.47A4.48,4.48,0,0,0,33.18,70.14Z" style="fill:#fff"/><path d="M71.59,84.61a10,10,0,1,1,10-10A10,10,0,0,1,71.59,84.61Zm0-14.47a4.47,4.47,0,1,0,4.48,4.47A4.48,4.48,0,0,0,71.59,70.14Z" style="fill:#fff"/></svg>