<svg xmlns="http://www.w3.org/2000/svg" viewBox="0 0 150 88.5"><title>cart-red</title><path d="M83.29,64H20.22a2.76,2.76,0,0,1-2.59-1.82L1.79,18.55a2.76,2.76,0,0,1,2.59-3.7H95.24a2.76,2.76,0,0,1,0,5.51H8.32L22.15,58.48H81.68L110.62,7.09a2.76,2.76,0,0,1,2.4-1.4h32.6a2.76,2.76,0,0,1,0,5.51h-31L85.69,62.59A2.76,2.76,0,0,1,83.29,64Z" style="fill:#9c161c"/><path d="M138.38,27.39h-23.9a2.76,2.76,0,0,1,0-5.51h23.9a2.76,2.76,0,0,1,0,5.51Z" style="fill:#9c161c"/><path d="M130,40.93H106.07a2.76,2.76,0,0,1,0-5.51H130a2.76,2.76,0,0,1,0,5.51Z" style="fill:#9c161c"/><path d="M33,86.5a10,10,0,1,1,10-10A10,10,0,0,1,33,86.5Zm0-14.45a4.47,4.47,0,1,0,4.47,4.47A4.47,4.47,0,0,0,33,72.05Z" style="fill:#9c161c"/><path d="M71.34,86.5a10,10,0,1,1,10-10A10,10,0,0,1,71.34,86.5Zm0-14.45a4.47,4.47,0,1,0,4.47,4.47A4.47,4.47,0,0,0,71.34,72.05Z" style="fill:#9c161c"/></svg>