<svg xmlns="http://www.w3.org/2000/svg" viewBox="0 0 150 150"><title>customer</title><path d="M75,146A71,71,0,0,1,47.36,9.58a71,71,0,0,1,55.27,130.84A70.55,70.55,0,0,1,75,146ZM75,4.6A70.4,70.4,0,0,0,25.22,124.78a70.4,70.4,0,0,0,99.56-99.56A69.94,69.94,0,0,0,75,4.6Z" style="fill:#fff;stroke:#fff;stroke-miterlimit:10"/><path d="M75,139.53h0a.4.4,0,1,1,.4-.4A.4.4,0,0,1,75,139.53Zm-4-.12-.13,0a.4.4,0,1,1,.13,0Zm8,0a.4.4,0,0,1-.1-.79h.1a.4.4,0,0,1,0,.8ZM67,139l-.11,0a.4.4,0,1,1,.11,0Zm16.07,0a.4.4,0,0,1-.1-.79h.1a.4.4,0,0,1,0,.8Zm-20-.61h-.07a.4.4,0,0,1,.07-.8l.11,0a.4.4,0,0,1-.11.79Zm24,0a.4.4,0,1,1,.13,0Zm-28-.86-.11,0h0a.4.4,0,1,1,.13,0Zm31.89,0a.4.4,0,1,1,.13,0H91Zm-35.75-1.1-.11,0h0a.4.4,0,1,1,.13,0Zm39.62,0a.4.4,0,1,1,.13,0h-.13Zm-43.42-1.34-.13,0-.07,0a.4.4,0,1,1,.2.05Zm47.21,0a.4.4,0,0,1-.18-.76l.05,0a.4.4,0,1,1,.13.78Zm-50.91-1.58-.13,0-.07,0a.4.4,0,1,1,.2.05Zm54.6,0a.4.4,0,0,1-.22-.74l.1,0a.4.4,0,1,1,.13.78Zm-58.19-1.81a.4.4,0,1,1,.13-.78l.1,0a.4.4,0,0,1-.22.74Zm61.77,0a.4.4,0,1,1,.22-.07l-.1,0Zm-65.24-2a.4.4,0,0,1-.22-.07l0,0a.4.4,0,1,1,.25.09Zm68.7,0a.4.4,0,1,1,.22-.07l-.1,0Zm-72-2.25a.4.4,0,0,1-.22-.07l0,0a.4.4,0,1,1,.25.09Zm75.36,0a.4.4,0,0,1-.28-.69l.06-.05a.4.4,0,1,1,.22.74Zm-78.55-2.45a.4.4,0,0,1-.25-.09l0,0a.4.4,0,1,1,.29.12Zm81.72,0a.4.4,0,0,1-.33-.63.41.41,0,0,1,.11-.11.4.4,0,1,1,.22.74Zm-84.75-2.65a.4.4,0,0,1-.25-.09l-.06-.06a.4.4,0,1,1,.31.15Zm87.77,0a.4.4,0,1,1,.29-.12h0A.4.4,0,0,1,118.89,122.15Zm-90.62-2.83a.4.4,0,0,1-.25-.09l-.08-.09a.4.4,0,1,1,.34.18Zm93.47,0a.4.4,0,1,1,.29-.12h0A.4.4,0,0,1,121.74,119.3Zm-96.13-3a.4.4,0,1,1,.25-.72l.08.09a.4.4,0,0,1-.33.63Zm98.8,0a.4.4,0,1,1,.34-.18.41.41,0,0,1-.11.11A.4.4,0,0,1,124.41,116.28ZM23.14,113.12a.4.4,0,1,1,.28-.69l.05.06a.4.4,0,0,1-.33.63Zm103.74,0a.4.4,0,1,1,.34-.18l-.05.06A.4.4,0,0,1,126.88,113.1Zm-106-3.3a.4.4,0,0,1-.33-.18l0,0a.4.4,0,1,1,.36.22Zm108.27,0a.4.4,0,1,1,.34-.18h0A.4.4,0,0,1,129.15,109.77ZM18.82,106.34a.4.4,0,1,1,.33-.63l0,0a.4.4,0,0,1-.36.58Zm112.38,0-.13,0a.4.4,0,0,1-.25-.51.42.42,0,0,1,0-.1.4.4,0,1,1,.33.63ZM17,102.76a.4.4,0,0,1-.36-.22h0a.4.4,0,1,1,.36.22Zm116.05,0a.4.4,0,1,1,.38-.28.42.42,0,0,1,0,.1A.4.4,0,0,1,133,102.71ZM15.38,99.07a.4.4,0,0,1-.36-.22l0-.08a.4.4,0,1,1,.39.31ZM134.64,99a.4.4,0,1,1,.38-.28l0,.05A.4.4,0,0,1,134.64,99ZM14,95.28a.4.4,0,0,1-.38-.27v0a.4.4,0,1,1,.52.29Zm122-.06h-.1a.4.4,0,0,1-.29-.49v0a.4.4,0,1,1,.38.53ZM12.89,91.41a.4.4,0,0,1-.38-.28.42.42,0,0,1,0-.08.4.4,0,1,1,.53.33Zm124.24-.07H137a.4.4,0,0,1-.29-.49v0a.4.4,0,1,1,.38.53ZM12,87.48a.4.4,0,1,1,.39-.5v0a.4.4,0,0,1-.33.46Zm126-.07a.4.4,0,0,1-.4-.4.41.41,0,0,1,0-.13.4.4,0,1,1,.38.53ZM11.38,83.5a.4.4,0,0,1-.4-.34v0a.4.4,0,1,1,.46.35Zm127.25-.07h-.1A.4.4,0,1,1,139,83a.43.43,0,0,1,0,.1A.4.4,0,0,1,138.63,83.44ZM11,79.5a.4.4,0,1,1,.4-.45.44.44,0,0,1,0,.05A.4.4,0,0,1,11,79.5Zm128-.07h-.1a.4.4,0,1,1,.5-.39.43.43,0,0,1,0,.1A.4.4,0,0,1,139,79.43Zm-128.13-4a.4.4,0,0,1-.4-.4h0a.4.4,0,1,1,.4.4Zm128.25-.07a.48.48,0,1,1,.4-.54h0a.41.41,0,0,1,0,.07.4.4,0,0,1,0,.07h0A.4.4,0,0,1,139.12,75.4ZM11,71.45a.4.4,0,0,1-.4-.4.44.44,0,0,1,0-.05.4.4,0,1,1,.4.45Zm128-.2a.4.4,0,0,1-.39-.3.43.43,0,0,1,0-.1.4.4,0,1,1,.5.39Zm-.38-4a.4.4,0,0,1-.39-.3.43.43,0,0,1,0-.1.4.4,0,1,1,.5.39Zm.4-.4h0Zm-127.25.25L11,67a.4.4,0,0,1,.8.1ZM12,63.46h-.07a.4.4,0,0,1-.33-.46v0a.4.4,0,1,1,.39.5Zm126-.2a.4.4,0,1,1,.38-.53.41.41,0,0,1,0,.13A.4.4,0,0,1,138,63.26ZM12.86,59.53l-.13,0a.4.4,0,1,1,.53-.33.42.42,0,0,1,0,.08A.4.4,0,0,1,12.86,59.53Zm124.24-.2a.4.4,0,1,1,.38-.53v0a.4.4,0,0,1-.29.49ZM14,55.66l-.13,0a.4.4,0,1,1,.52-.29v0A.4.4,0,0,1,14,55.66Zm122-.19a.4.4,0,1,1,.38-.53v0a.4.4,0,0,1-.29.49ZM15.34,51.86a.4.4,0,1,1,.39-.31l0,.08A.4.4,0,0,1,15.34,51.86Zm119.26-.18a.4.4,0,0,1-.36-.22l0-.05a.4.4,0,1,1,.38.28ZM16.93,48.16a.4.4,0,0,1-.36-.58h0a.4.4,0,1,1,.36.58ZM133,48a.4.4,0,0,1-.34-.18.42.42,0,0,1,0-.1A.4.4,0,1,1,133,48ZM18.76,44.56A.4.4,0,0,1,18.4,44l0,0a.4.4,0,1,1,.33.63Zm112.39-.15a.4.4,0,1,1,.33-.63.42.42,0,0,1,0,.1.4.4,0,0,1-.25.51ZM20.82,41.09a.4.4,0,1,1,.36-.22l0,0A.4.4,0,0,1,20.82,41.09ZM129.09,41a.4.4,0,1,1,.33-.63h0a.4.4,0,0,1-.33.63Zm-106-3.19a.4.4,0,0,1-.33-.63l.05-.06a.4.4,0,1,1,.28.69Zm103.74-.13a.4.4,0,0,1-.28-.12l-.05-.06a.4.4,0,1,1,.34.18ZM25.55,34.58a.4.4,0,0,1-.33-.63l.08-.09a.4.4,0,1,1,.25.72Zm98.8-.12a.4.4,0,0,1-.22-.07.41.41,0,0,1-.11-.11.4.4,0,1,1,.34.18Zm-96.14-2.9a.4.4,0,1,1,.34-.18l-.08.09A.4.4,0,0,1,28.21,31.55Zm93.47-.12a.4.4,0,1,1,.28-.69h0a.4.4,0,0,1-.28.69ZM31.06,28.7a.4.4,0,1,1,.31-.15l-.06.06A.4.4,0,0,1,31.06,28.7Zm87.77-.11a.4.4,0,1,1,.28-.69h0a.4.4,0,0,1-.28.69ZM34.07,26a.4.4,0,1,1,.29-.12l0,0A.4.4,0,0,1,34.07,26Zm81.73-.1a.4.4,0,1,1,.22-.74.41.41,0,0,1,.11.11.4.4,0,0,1-.33.63ZM37.25,23.56a.4.4,0,1,1,.25-.09l0,0A.4.4,0,0,1,37.25,23.56Zm75.37-.1a.4.4,0,1,1,.22-.74l.06.05a.4.4,0,0,1-.28.69Zm-72-2.17a.4.4,0,1,1,.25-.09l0,0A.4.4,0,0,1,40.58,21.29Zm68.71-.09-.13,0-.1,0a.4.4,0,1,1,.22.07ZM44,19.24a.4.4,0,0,1-.22-.74l.1,0a.4.4,0,0,1,.31.74A.4.4,0,0,1,44,19.24Zm61.78-.08-.13,0-.1,0a.4.4,0,1,1,.22.07ZM47.62,17.4a.4.4,0,1,1,.22-.07l-.1,0Zm54.6-.08a.4.4,0,1,1,.13-.78l.1,0a.4.4,0,0,1-.22.74ZM51.3,15.8a.4.4,0,1,1,.2-.05l-.07,0Zm47.21-.07a.4.4,0,1,1,.13-.78l.05,0a.4.4,0,0,1-.18.76ZM55.22,14.41,55,13.64a.4.4,0,1,1,.25.76Zm39.5,0h-.13a.4.4,0,1,1,.13,0ZM59.09,13.28l-.25-.76a.4.4,0,1,1,.25.76Zm31.76,0h-.13a.4.4,0,1,1,.13,0Zm-28-.83a.4.4,0,0,1-.11-.79l.11,0a.4.4,0,0,1,.07.8Zm24,0-.13,0a.4.4,0,1,1,.13,0Zm-20.05-.59a.4.4,0,1,1,.11,0Zm16.07,0h0a.4.4,0,0,1,0-.8H83a.4.4,0,0,1-.1.79Zm-12.06-.36a.4.4,0,1,1,.13,0Zm8.05,0h0a.4.4,0,0,1,0-.8H79a.4.4,0,0,1-.1.79Zm-4-.12a.4.4,0,0,1,0-.8h0a.4.4,0,1,1,0,.8Z" style="fill:#fff;stroke:#fff;stroke-miterlimit:10"/><path d="M23.17,96.93a2.17,2.17,0,0,1-.5-1.52V90.89a2.17,2.17,0,0,1,.5-1.52,1.87,1.87,0,0,1,1.45-.54,1.87,1.87,0,0,1,1.45.54,2.17,2.17,0,0,1,.5,1.52v.89H25.31v-1q0-.78-.66-.78t-.66.78V95.5q0,.77.66.77t.66-.77V94.21h1.25V95.4a2.17,2.17,0,0,1-.5,1.52,1.87,1.87,0,0,1-1.45.54A1.87,1.87,0,0,1,23.17,96.93Z" style="fill:#fff"/><path d="M28.53,96.92a2.23,2.23,0,0,1-.5-1.57V88.95h1.32v6.5a.91.91,0,0,0,.17.62.74.74,0,0,0,1,0,.92.92,0,0,0,.17-.62v-6.5H32v6.41a2.23,2.23,0,0,1-.5,1.57,2.24,2.24,0,0,1-2.93,0Z" style="fill:#fff"/><path d="M33.88,96.92a2.26,2.26,0,0,1-.49-1.57v-.48h1.25v.58q0,.82.68.82a.64.64,0,0,0,.51-.2,1,1,0,0,0,.17-.64,1.78,1.78,0,0,0-.24-.93,4.45,4.45,0,0,0-.89-1,5.3,5.3,0,0,1-1.14-1.3,2.66,2.66,0,0,1-.32-1.31,2.19,2.19,0,0,1,.5-1.54,1.89,1.89,0,0,1,1.46-.55,1.82,1.82,0,0,1,1.43.55,2.28,2.28,0,0,1,.49,1.57v.35H36v-.43a1,1,0,0,0-.17-.63.61.61,0,0,0-.49-.2q-.66,0-.66.8a1.58,1.58,0,0,0,.25.85,4.71,4.71,0,0,0,.89,1A5,5,0,0,1,37,93.95a2.91,2.91,0,0,1,.31,1.38,2.25,2.25,0,0,1-.51,1.58,1.92,1.92,0,0,1-1.48.55A1.85,1.85,0,0,1,33.88,96.92Z" style="fill:#fff"/><path d="M39.83,90.15H38.45v-1.2h4.08v1.2H41.15v7.2H39.83Z" style="fill:#fff"/><path d="M44.26,96.91a2.2,2.2,0,0,1-.52-1.56V90.94a2.2,2.2,0,0,1,.52-1.56,2.28,2.28,0,0,1,3,0,2.2,2.2,0,0,1,.52,1.56v4.42a2.2,2.2,0,0,1-.52,1.56,2.28,2.28,0,0,1-3,0Zm2.17-1.48V90.85q0-.83-.68-.83t-.68.83v4.58q0,.83.68.83T46.43,95.44Z" style="fill:#fff"/><path d="M49.36,88.95h1.88l.84,6h0l.84-6h1.88v8.4H53.58V91h0l-1,6.36h-1.1l-1-6.36h0v6.36H49.36Z" style="fill:#fff"/><path d="M56.53,88.95h3.6v1.2H57.85v2.22h1.81v1.2H57.85v2.58h2.28v1.2h-3.6Z" style="fill:#fff"/><path d="M61.61,88.95h2a1.69,1.69,0,0,1,2,1.93v.52q0,1.31-.86,1.66v0a1,1,0,0,1,.68.59,3,3,0,0,1,.2,1.19v1.48a5.6,5.6,0,0,0,0,.58,1.46,1.46,0,0,0,.12.44H64.33a1.9,1.9,0,0,1-.1-.38,5.76,5.76,0,0,1,0-.65V94.78A1.3,1.3,0,0,0,64,94a.79.79,0,0,0-.64-.23h-.46v3.6H61.61Zm1.8,3.6a.79.79,0,0,0,.59-.2,1,1,0,0,0,.2-.68V91a1.07,1.07,0,0,0-.16-.66.61.61,0,0,0-.51-.2h-.6v2.4Z" style="fill:#fff"/><path d="M70.07,96.92a2.26,2.26,0,0,1-.49-1.57v-.48h1.25v.58q0,.82.68.82a.64.64,0,0,0,.51-.2,1,1,0,0,0,.17-.64A1.78,1.78,0,0,0,72,94.5a4.45,4.45,0,0,0-.89-1,5.3,5.3,0,0,1-1.14-1.3,2.66,2.66,0,0,1-.32-1.31,2.19,2.19,0,0,1,.5-1.54,1.89,1.89,0,0,1,1.46-.55,1.82,1.82,0,0,1,1.43.55,2.28,2.28,0,0,1,.49,1.57v.35H72.24v-.43a1,1,0,0,0-.17-.63.61.61,0,0,0-.49-.2q-.66,0-.66.8a1.58,1.58,0,0,0,.25.85,4.71,4.71,0,0,0,.89,1,5,5,0,0,1,1.14,1.31,2.91,2.91,0,0,1,.31,1.38A2.25,2.25,0,0,1,73,96.91a1.92,1.92,0,0,1-1.48.55A1.85,1.85,0,0,1,70.07,96.92Z" style="fill:#fff"/><path d="M76,88.95h1.79l1.37,8.4H77.81l-.24-1.67v0h-1.5l-.24,1.64H74.6Zm1.44,5.62-.59-4.15h0l-.58,4.15Z" style="fill:#fff"/><path d="M81,90.15H79.58v-1.2h4.08v1.2H82.28v7.2H81Z" style="fill:#fff"/><path d="M85,88.95h1.32v8.4H85Z" style="fill:#fff"/><path d="M88.31,96.92a2.26,2.26,0,0,1-.49-1.57v-.48h1.25v.58q0,.82.68.82a.64.64,0,0,0,.51-.2,1,1,0,0,0,.17-.64,1.78,1.78,0,0,0-.24-.93,4.45,4.45,0,0,0-.89-1,5.3,5.3,0,0,1-1.14-1.3,2.66,2.66,0,0,1-.32-1.31,2.19,2.19,0,0,1,.5-1.54,1.89,1.89,0,0,1,1.46-.55,1.82,1.82,0,0,1,1.43.55,2.28,2.28,0,0,1,.49,1.57v.35H90.48v-.43a1,1,0,0,0-.17-.63.61.61,0,0,0-.49-.2q-.66,0-.66.8a1.58,1.58,0,0,0,.25.85,4.71,4.71,0,0,0,.89,1,5,5,0,0,1,1.14,1.31,2.91,2.91,0,0,1,.31,1.38,2.25,2.25,0,0,1-.51,1.58,1.92,1.92,0,0,1-1.48.55A1.85,1.85,0,0,1,88.31,96.92Z" style="fill:#fff"/><path d="M93.23,88.95h3.49v1.2H94.55v2.34h1.7v1.2h-1.7v3.66H93.23Z" style="fill:#fff"/><path d="M98.71,88.95h1.79l1.37,8.4h-1.32l-.24-1.67v0h-1.5l-.24,1.64H97.34Zm1.44,5.62-.59-4.15h0L99,94.56Z" style="fill:#fff"/><path d="M103.61,96.93a2.17,2.17,0,0,1-.5-1.52V90.89a2.17,2.17,0,0,1,.5-1.52,2.21,2.21,0,0,1,2.89,0,2.17,2.17,0,0,1,.5,1.52v.89h-1.25v-1q0-.78-.66-.78t-.66.78V95.5q0,.77.66.77t.66-.77V94.21H107V95.4a2.17,2.17,0,0,1-.5,1.52,2.21,2.21,0,0,1-2.89,0Z" style="fill:#fff"/><path d="M109.55,90.15h-1.38v-1.2h4.08v1.2h-1.38v7.2h-1.32Z" style="fill:#fff"/><path d="M113.6,88.95h1.32v8.4H113.6Z" style="fill:#fff"/><path d="M117,96.91a2.2,2.2,0,0,1-.52-1.56V90.94a2.2,2.2,0,0,1,.52-1.56,2.28,2.28,0,0,1,3,0,2.2,2.2,0,0,1,.52,1.56v4.42a2.2,2.2,0,0,1-.52,1.56,2.28,2.28,0,0,1-3,0Zm2.17-1.48V90.85q0-.83-.68-.83t-.68.83v4.58q0,.83.68.83T119.22,95.44Z" style="fill:#fff"/><path d="M122.15,88.95h1.66l1.28,5h0v-5h1.18v8.4h-1.36l-1.58-6.13h0v6.13h-1.18Z" style="fill:#fff"/><path d="M42.93,54.43a6.3,6.3,0,0,0,2-.27,3.55,3.55,0,0,0,1.28-.73,3.7,3.7,0,0,0,.8-1.07,10,10,0,0,0,.53-1.3h2.83V77.81h-4.2V57.41H42.93Z" style="fill:#fff"/><path d="M55.88,57.48a7,7,0,0,1,1.64-5,6.21,6.21,0,0,1,4.74-1.74A6.21,6.21,0,0,1,67,52.5a7,7,0,0,1,1.64,5v13.9a7,7,0,0,1-1.64,5,6.21,6.21,0,0,1-4.74,1.74,6.21,6.21,0,0,1-4.74-1.74,7,7,0,0,1-1.64-5Zm4.2,14.17a2.84,2.84,0,0,0,.59,2,2.42,2.42,0,0,0,3.17,0,2.84,2.84,0,0,0,.59-2V57.22a2.84,2.84,0,0,0-.59-2,2.42,2.42,0,0,0-3.17,0,2.84,2.84,0,0,0-.59,2Z" style="fill:#fff"/><path d="M71.77,57.48a7,7,0,0,1,1.64-5,6.21,6.21,0,0,1,4.74-1.74,6.21,6.21,0,0,1,4.74,1.74,7,7,0,0,1,1.64,5v13.9a7,7,0,0,1-1.64,5,6.21,6.21,0,0,1-4.74,1.74,6.21,6.21,0,0,1-4.74-1.74,7,7,0,0,1-1.64-5ZM76,71.66a2.84,2.84,0,0,0,.59,2,2.42,2.42,0,0,0,3.17,0,2.84,2.84,0,0,0,.59-2V57.22a2.84,2.84,0,0,0-.59-2,2.42,2.42,0,0,0-3.17,0,2.84,2.84,0,0,0-.59,2Z" style="fill:#fff"/><path d="M87.78,55.15a4.48,4.48,0,0,1,1-3.17,4.66,4.66,0,0,1,6,0,4.48,4.48,0,0,1,1,3.17v8.79a4.48,4.48,0,0,1-1,3.17,4.66,4.66,0,0,1-6,0,4.48,4.48,0,0,1-1-3.17Zm2.67,9q0,1.68,1.38,1.68a1.3,1.3,0,0,0,1-.4,1.87,1.87,0,0,0,.36-1.28V55a1.88,1.88,0,0,0-.36-1.28,1.3,1.3,0,0,0-1-.4q-1.38,0-1.38,1.68Zm11.92-13.06h2.48L94.31,77.81H91.83ZM101,64.93a4.48,4.48,0,0,1,1-3.17,4.66,4.66,0,0,1,6,0,4.48,4.48,0,0,1,1,3.17v8.79a4.48,4.48,0,0,1-1,3.17,4.66,4.66,0,0,1-6,0,4.48,4.48,0,0,1-1-3.17Zm2.67,9q0,1.68,1.38,1.68a1.3,1.3,0,0,0,1-.4,1.87,1.87,0,0,0,.36-1.28V64.74a1.87,1.87,0,0,0-.36-1.28,1.3,1.3,0,0,0-1-.4q-1.38,0-1.38,1.68Z" style="fill:#fff"/></svg>