<svg xmlns="http://www.w3.org/2000/svg" viewBox="0 0 129 34.5"><title>order</title><rect x="1.67" y="2.17" width="125.33" height="30.67" rx="15.33" ry="15.33" style="fill:#32ba46"/><path d="M21.41,28a10.59,10.59,0,0,1-5.3-1.43L12,28l.85-4.39a10.51,10.51,0,0,1-2-6.25A10.64,10.64,0,1,1,21.41,28ZM16.3,24.83l.32.2a9.07,9.07,0,1,0-2.34-2.1l.22.28L14,25.61Z" style="fill:#fff"/><path d="M16,13.28s.62-1.09,1.13-1.15,1.16-.06,1.34.27,1,2.27,1,2.27a.76.76,0,0,1-.07.65,6.47,6.47,0,0,1-.67.79.58.58,0,0,0,0,.69,12.51,12.51,0,0,0,1.5,1.84,8.16,8.16,0,0,0,2.43,1.43.49.49,0,0,0,.37-.11c.15-.15.94-1.13.94-1.13a.55.55,0,0,1,.68-.13c.42.19,2.24,1.1,2.24,1.1a.39.39,0,0,1,.21.4,2.57,2.57,0,0,1-.4,1.38,3.17,3.17,0,0,1-2.22,1.09A9.78,9.78,0,0,1,19,20.2c-1.49-1.49-2.81-3-3.12-4.36S15.66,13.84,16,13.28Z" style="fill:#fff"/><path d="M40.37,21.1H39.6l-1.48-7.16h.77L40,19.25l.64-5.31h.77l1.13,5.31.64-5.31h.76l-1,7.16h-.77l-1-5Z" style="fill:#fff"/><path d="M45.12,13.94h.77v2.5a.65.65,0,0,1,.36-.4,1.4,1.4,0,0,1,.68-.17,1,1,0,0,1,.75.3,1.29,1.29,0,0,1,.3.95v4h-.77V17.28a.78.78,0,0,0-.17-.53.51.51,0,0,0-.39-.19.71.71,0,0,0-.52.22.93.93,0,0,0-.25.62v3.7h-.77Z" style="fill:#fff"/><path d="M51.36,20.69a.88.88,0,0,1-.93.45,1.15,1.15,0,0,1-.86-.3,1.36,1.36,0,0,1-.29-1,2.17,2.17,0,0,1,.3-1.23,2,2,0,0,1,.89-.69l.23-.07.32-.13a1.27,1.27,0,0,0,.27-.17.25.25,0,0,0,.11-.18,2.27,2.27,0,0,0-.11-.86.48.48,0,0,0-.48-.25.61.61,0,0,0-.4.13.71.71,0,0,0-.22.31,1.33,1.33,0,0,0-.08.35c0,.11,0,.22,0,.33h-.68a3,3,0,0,1,.06-.61,1.7,1.7,0,0,1,.22-.56,1.23,1.23,0,0,1,.44-.42,1.32,1.32,0,0,1,.68-.16,1.42,1.42,0,0,1,.74.17,1.1,1.1,0,0,1,.42.42,1.62,1.62,0,0,1,.17.44,1.71,1.71,0,0,1,0,.3v3.49a1,1,0,0,0,.09.46.28.28,0,0,0,.25.17h-.8a.21.21,0,0,1-.17-.07.4.4,0,0,1-.09-.15.88.88,0,0,1,0-.15.74.74,0,0,1,0-.09Zm-.3-2.18-.44.22a1.21,1.21,0,0,0-.29.24,1.06,1.06,0,0,0-.21.36,1.65,1.65,0,0,0-.08.54.73.73,0,0,0,.11.45.37.37,0,0,0,.31.15.87.87,0,0,0,.45-.17,2.49,2.49,0,0,0,.49-.43V18.34Z" style="fill:#fff"/><path d="M54.52,14.63v1.16h.93v.77h-.93v3.38a.59.59,0,0,0,.07.27c0,.09.14.13.29.13a3,3,0,0,0,.57-.08v.64l-.2.08L55,21l-.22,0-.12,0a1.78,1.78,0,0,1-.51-.06.52.52,0,0,1-.27-.16.5.5,0,0,1-.1-.24,2.94,2.94,0,0,1,0-.38v-3.7h-.64v-.77h.64V14.63Z" style="fill:#fff"/><path d="M58.54,17.16a.77.77,0,0,0-.16-.52.53.53,0,0,0-.42-.18.6.6,0,0,0-.43.14.52.52,0,0,0-.15.4.58.58,0,0,0,.15.4,5.46,5.46,0,0,0,.63.55l.59.45a1.81,1.81,0,0,1,.35.37,1.49,1.49,0,0,1,.21.46,2.06,2.06,0,0,1,0,1.11,1.08,1.08,0,0,1-.2.4,1,1,0,0,1-.42.3,1.78,1.78,0,0,1-.7.12,1.81,1.81,0,0,1-.74-.14,1.21,1.21,0,0,1-.49-.38,1.51,1.51,0,0,1-.26-.52,2.33,2.33,0,0,1-.08-.61h.79a.87.87,0,0,0,.26.65.76.76,0,0,0,.51.26.61.61,0,0,0,.43-.18.51.51,0,0,0,.19-.35,1.26,1.26,0,0,0,0-.26.67.67,0,0,0-.11-.23,1.91,1.91,0,0,0-.26-.28l-.48-.42q-.4-.3-.64-.53a2.14,2.14,0,0,1-.36-.41,1.14,1.14,0,0,1-.15-.34,1.6,1.6,0,0,1,0-.37,1.44,1.44,0,0,1,.07-.4,1.6,1.6,0,0,1,.21-.44,1.19,1.19,0,0,1,.42-.37,1.36,1.36,0,0,1,.66-.15,1.81,1.81,0,0,1,.69.11,1,1,0,0,1,.43.31,1.17,1.17,0,0,1,.22.46,2.64,2.64,0,0,1,.06.6Z" style="fill:#fff"/><path d="M61,21.1h-.77l1.61-7.16h1l1.61,7.16H63.7L63.22,19H61.49Zm1.33-6-.72,3.17h1.4Z" style="fill:#fff"/><path d="M66.31,15.79v.42a.25.25,0,0,1,.09-.15,1.65,1.65,0,0,1,.23-.18,1.47,1.47,0,0,1,.28-.15.67.67,0,0,1,.23-.06,1.26,1.26,0,0,1,.47.1,1.19,1.19,0,0,1,.47.39,2.39,2.39,0,0,1,.38.86,5.82,5.82,0,0,1,.15,1.45,6.68,6.68,0,0,1-.11,1.35,2.47,2.47,0,0,1-.3.82,1,1,0,0,1-.9.51,1.93,1.93,0,0,1-.52-.06,1.1,1.1,0,0,1-.47-.31v1.93h-.79V15.79Zm.18,4.39a.59.59,0,0,0,.52.27,1,1,0,0,0,.44-.09.56.56,0,0,0,.26-.29,2,2,0,0,0,.13-.56c0-.24,0-.56,0-1a8,8,0,0,0-.07-1.14,2.48,2.48,0,0,0-.17-.66.6.6,0,0,0-.23-.28.57.57,0,0,0-.27-.07.56.56,0,0,0-.27.08,1.32,1.32,0,0,0-.26.2,1.52,1.52,0,0,0-.2.24.37.37,0,0,0-.08.18V19.5A1.16,1.16,0,0,0,66.49,20.18Z" style="fill:#fff"/><path d="M70.85,15.79v.42a.25.25,0,0,1,.09-.15,1.65,1.65,0,0,1,.23-.18,1.47,1.47,0,0,1,.28-.15.67.67,0,0,1,.23-.06,1.26,1.26,0,0,1,.47.1,1.19,1.19,0,0,1,.47.39A2.39,2.39,0,0,1,73,17a5.82,5.82,0,0,1,.15,1.45A6.68,6.68,0,0,1,73,19.82a2.47,2.47,0,0,1-.3.82,1,1,0,0,1-.9.51,1.93,1.93,0,0,1-.52-.06,1.1,1.1,0,0,1-.47-.31v1.93h-.79V15.79ZM71,20.18a.59.59,0,0,0,.52.27,1,1,0,0,0,.44-.09.56.56,0,0,0,.26-.29,2,2,0,0,0,.13-.56c0-.24,0-.56,0-1a8,8,0,0,0-.07-1.14,2.48,2.48,0,0,0-.17-.66.6.6,0,0,0-.23-.28.57.57,0,0,0-.27-.07.56.56,0,0,0-.27.08,1.32,1.32,0,0,0-.26.2,1.52,1.52,0,0,0-.2.24.37.37,0,0,0-.08.18V19.5A1.16,1.16,0,0,0,71,20.18Z" style="fill:#fff"/><path d="M76.46,15.79h.77l.88,4.46L79,15.79h.77L78.64,21l-.06.21a4.58,4.58,0,0,1-.19.56,1.44,1.44,0,0,1-.3.42,1.42,1.42,0,0,1-.57.33,3,3,0,0,1-.94.12V22a1.41,1.41,0,0,0,.32,0,1,1,0,0,0,.32-.14.8.8,0,0,0,.26-.31,1.13,1.13,0,0,0,.1-.52Z" style="fill:#fff"/><path d="M81.82,21.11a1.17,1.17,0,0,1-.47-.35A2,2,0,0,1,81,20a5.34,5.34,0,0,1-.15-1.38,11.44,11.44,0,0,1,.05-1.16,3.39,3.39,0,0,1,.2-.88,1.31,1.31,0,0,1,.45-.61,1.47,1.47,0,0,1,1.54,0,1.32,1.32,0,0,1,.45.61,3.39,3.39,0,0,1,.2.88,11.14,11.14,0,0,1,.05,1.16A5.39,5.39,0,0,1,83.63,20a2,2,0,0,1-.38.8,1.18,1.18,0,0,1-.47.35,1.41,1.41,0,0,1-1,0Zm1-1.13A7.13,7.13,0,0,0,83,18.38a6.79,6.79,0,0,0-.12-1.52.53.53,0,0,0-.55-.45.47.47,0,0,0-.36.15,1,1,0,0,0-.2.42,3.36,3.36,0,0,0-.08.61q0,.34,0,.8A7.63,7.63,0,0,0,81.75,20a.54.54,0,0,0,.55.48Q82.72,20.48,82.85,20Z" style="fill:#fff"/><path d="M88.3,15.83v5.22h-.77v-.68a.64.64,0,0,1-.34.54,1.34,1.34,0,0,1-.75.22,1,1,0,0,1-.63-.21.92.92,0,0,1-.33-.63V15.83h.77V20a.42.42,0,0,0,.12.34.47.47,0,0,0,.32.11.77.77,0,0,0,.58-.29,1.21,1.21,0,0,0,.26-.84v-3.5Z" style="fill:#fff"/><path d="M90.12,21V15.78h.77v.48a1.4,1.4,0,0,1,.5-.38,2.41,2.41,0,0,1,.82-.1v.77a1.46,1.46,0,0,0-.91.32,1,1,0,0,0-.41.85V21Z" style="fill:#fff"/><path d="M96.3,21.11a1.17,1.17,0,0,1-.47-.35,2,2,0,0,1-.38-.8,5.34,5.34,0,0,1-.15-1.38,11.44,11.44,0,0,1,.05-1.16,3.39,3.39,0,0,1,.2-.88,1.31,1.31,0,0,1,.45-.61,1.47,1.47,0,0,1,1.54,0,1.32,1.32,0,0,1,.45.61,3.39,3.39,0,0,1,.2.88,11.14,11.14,0,0,1,.05,1.16A5.39,5.39,0,0,1,98.11,20a2,2,0,0,1-.38.8,1.18,1.18,0,0,1-.47.35,1.41,1.41,0,0,1-1,0Zm1-1.13a7.13,7.13,0,0,0,.13-1.61,6.79,6.79,0,0,0-.12-1.52.53.53,0,0,0-.55-.45.47.47,0,0,0-.36.15,1,1,0,0,0-.2.42,3.36,3.36,0,0,0-.08.61q0,.34,0,.8A7.63,7.63,0,0,0,96.23,20a.54.54,0,0,0,.55.48Q97.2,20.48,97.32,20Z" style="fill:#fff"/><path d="M99.86,21V15.78h.77v.48a1.4,1.4,0,0,1,.5-.38,2.41,2.41,0,0,1,.82-.1v.77a1.46,1.46,0,0,0-.91.32,1,1,0,0,0-.41.85V21Z" style="fill:#fff"/><path d="M105.25,21.07a.51.51,0,0,0-.08-.34.21.21,0,0,0-.12-.08.27.27,0,0,1-.09.17,1.06,1.06,0,0,1-.23.18,1.58,1.58,0,0,1-.29.14.82.82,0,0,1-.25.05,1.24,1.24,0,0,1-.47-.09,1.17,1.17,0,0,1-.45-.37,2.29,2.29,0,0,1-.37-.84,5.87,5.87,0,0,1-.15-1.44,7,7,0,0,1,.11-1.36,2.67,2.67,0,0,1,.29-.84,1.06,1.06,0,0,1,.4-.41,1,1,0,0,1,.48-.11,1.94,1.94,0,0,1,.54.07,1.11,1.11,0,0,1,.49.35V13.75h.78v7.32Zm-.38-4.39a.59.59,0,0,0-.52-.26,1,1,0,0,0-.44.08.61.61,0,0,0-.28.29,1.77,1.77,0,0,0-.15.57,8.42,8.42,0,0,0,0,.94,8.14,8.14,0,0,0,.07,1.15,2.4,2.4,0,0,0,.17.67.54.54,0,0,0,.54.36.51.51,0,0,0,.26-.08,1.65,1.65,0,0,0,.27-.2A1.61,1.61,0,0,0,105,20a.36.36,0,0,0,.08-.17V17.36A1.16,1.16,0,0,0,104.86,16.68Z" style="fill:#fff"/><path d="M107.92,18.68a6.21,6.21,0,0,0,.09.94,1.85,1.85,0,0,0,.18.56.61.61,0,0,0,.58.35.6.6,0,0,0,.52-.34,1.39,1.39,0,0,0,.2-.73h.68a2.23,2.23,0,0,1-.09.62,1.76,1.76,0,0,1-.25.54,1.26,1.26,0,0,1-.43.38,1.21,1.21,0,0,1-.59.14A1.84,1.84,0,0,1,108,21a1,1,0,0,1-.48-.46,2.41,2.41,0,0,1-.25-.83,9.72,9.72,0,0,1-.07-1.29q0-.73,0-1.2a2.82,2.82,0,0,1,.2-.83,1.14,1.14,0,0,1,.46-.54,1.58,1.58,0,0,1,.82-.19,1.54,1.54,0,0,1,.73.15,1,1,0,0,1,.43.5,3,3,0,0,1,.22.9,13.84,13.84,0,0,1,.06,1.46v0Zm1.61-.66a6.27,6.27,0,0,0-.05-.9,1.53,1.53,0,0,0-.15-.51.48.48,0,0,0-.24-.22,1,1,0,0,0-.37-.06.81.81,0,0,0-.36.07.53.53,0,0,0-.23.25,1.8,1.8,0,0,0-.14.51,7.32,7.32,0,0,0-.07.85Z" style="fill:#fff"/><path d="M111.78,21V15.78h.77v.48a1.4,1.4,0,0,1,.5-.38,2.41,2.41,0,0,1,.82-.1v.77a1.46,1.46,0,0,0-.91.32,1,1,0,0,0-.41.85V21Z" style="fill:#fff"/></svg>