<svg xmlns="http://www.w3.org/2000/svg" viewBox="0 0 150 150"><title>transparent</title><path d="M75,146A71,71,0,0,1,47.36,9.58a71,71,0,0,1,55.27,130.84A70.55,70.55,0,0,1,75,146ZM75,4.6A70.4,70.4,0,0,0,25.22,124.78a70.4,70.4,0,0,0,99.56-99.56A69.94,69.94,0,0,0,75,4.6Z" style="fill:#fff;stroke:#fff;stroke-miterlimit:10"/><path d="M75,139.53h0a.4.4,0,1,1,.4-.4A.4.4,0,0,1,75,139.53Zm-4-.12-.13,0a.4.4,0,1,1,.13,0Zm8,0a.4.4,0,0,1-.1-.79h.1a.4.4,0,0,1,0,.8ZM67,139l-.11,0a.4.4,0,1,1,.11,0Zm16.07,0a.4.4,0,0,1-.1-.79h.1a.4.4,0,0,1,0,.8Zm-20-.61h-.07a.4.4,0,0,1,.07-.8l.11,0a.4.4,0,0,1-.11.79Zm24,0a.4.4,0,1,1,.13,0Zm-28-.86-.11,0h0a.4.4,0,1,1,.13,0Zm31.89,0a.4.4,0,1,1,.13,0H91Zm-35.75-1.1-.11,0h0a.4.4,0,1,1,.13,0Zm39.62,0a.4.4,0,1,1,.13,0h-.13Zm-43.42-1.34-.13,0-.07,0a.4.4,0,1,1,.2.05Zm47.21,0a.4.4,0,0,1-.18-.76l.05,0a.4.4,0,1,1,.13.78Zm-50.91-1.58-.13,0-.07,0a.4.4,0,1,1,.2.05Zm54.6,0a.4.4,0,0,1-.22-.74l.1,0a.4.4,0,1,1,.13.78Zm-58.19-1.81a.4.4,0,1,1,.13-.78l.1,0a.4.4,0,0,1-.22.74Zm61.77,0a.4.4,0,1,1,.22-.07l-.1,0Zm-65.24-2a.4.4,0,0,1-.22-.07l0,0a.4.4,0,1,1,.25.09Zm68.7,0a.4.4,0,1,1,.22-.07l-.1,0Zm-72-2.25a.4.4,0,0,1-.22-.07l0,0a.4.4,0,1,1,.25.09Zm75.36,0a.4.4,0,0,1-.28-.69l.06-.05a.4.4,0,1,1,.22.74Zm-78.55-2.45a.4.4,0,0,1-.25-.09l0,0a.4.4,0,1,1,.29.12Zm81.72,0a.4.4,0,0,1-.33-.63.41.41,0,0,1,.11-.11.4.4,0,1,1,.22.74Zm-84.75-2.65a.4.4,0,0,1-.25-.09l-.06-.06a.4.4,0,1,1,.31.15Zm87.77,0a.4.4,0,1,1,.29-.12h0A.4.4,0,0,1,118.89,122.15Zm-90.62-2.83a.4.4,0,0,1-.25-.09l-.08-.09a.4.4,0,1,1,.34.18Zm93.47,0a.4.4,0,1,1,.29-.12h0A.4.4,0,0,1,121.74,119.3Zm-96.13-3a.4.4,0,1,1,.25-.72l.08.09a.4.4,0,0,1-.33.63Zm98.8,0a.4.4,0,1,1,.34-.18.41.41,0,0,1-.11.11A.4.4,0,0,1,124.41,116.28ZM23.14,113.12a.4.4,0,1,1,.28-.69l.05.06a.4.4,0,0,1-.33.63Zm103.74,0a.4.4,0,1,1,.34-.18l-.05.06A.4.4,0,0,1,126.88,113.1Zm-106-3.3a.4.4,0,0,1-.33-.18l0,0a.4.4,0,1,1,.36.22Zm108.27,0a.4.4,0,1,1,.34-.18h0A.4.4,0,0,1,129.15,109.77ZM18.82,106.34a.4.4,0,1,1,.33-.63l0,0a.4.4,0,0,1-.36.58Zm112.38,0-.13,0a.4.4,0,0,1-.25-.51.42.42,0,0,1,0-.1.4.4,0,1,1,.33.63ZM17,102.76a.4.4,0,0,1-.36-.22h0a.4.4,0,1,1,.36.22Zm116.05,0a.4.4,0,1,1,.38-.28.42.42,0,0,1,0,.1A.4.4,0,0,1,133,102.71ZM15.38,99.07a.4.4,0,0,1-.36-.22l0-.08a.4.4,0,1,1,.39.31ZM134.64,99a.4.4,0,1,1,.38-.28l0,.05A.4.4,0,0,1,134.64,99ZM14,95.28a.4.4,0,0,1-.38-.27v0a.4.4,0,1,1,.52.29Zm122-.06h-.1a.4.4,0,0,1-.29-.49v0a.4.4,0,1,1,.38.53ZM12.89,91.41a.4.4,0,0,1-.38-.28.42.42,0,0,1,0-.08.4.4,0,1,1,.53.33Zm124.24-.07H137a.4.4,0,0,1-.29-.49v0a.4.4,0,1,1,.38.53ZM12,87.48a.4.4,0,1,1,.39-.5v0a.4.4,0,0,1-.33.46Zm126-.07a.4.4,0,0,1-.4-.4.41.41,0,0,1,0-.13.4.4,0,1,1,.38.53ZM11.38,83.5a.4.4,0,0,1-.4-.34v0a.4.4,0,1,1,.46.35Zm127.25-.07h-.1A.4.4,0,1,1,139,83a.43.43,0,0,1,0,.1A.4.4,0,0,1,138.63,83.44ZM11,79.5a.4.4,0,1,1,.4-.45.44.44,0,0,1,0,.05A.4.4,0,0,1,11,79.5Zm128-.07h-.1a.4.4,0,1,1,.5-.39.43.43,0,0,1,0,.1A.4.4,0,0,1,139,79.43Zm-128.13-4a.4.4,0,0,1-.4-.4h0a.4.4,0,1,1,.4.4Zm128.25-.07a.48.48,0,1,1,.4-.54h0a.41.41,0,0,1,0,.07.4.4,0,0,1,0,.07h0A.4.4,0,0,1,139.12,75.4ZM11,71.45a.4.4,0,0,1-.4-.4.44.44,0,0,1,0-.05.4.4,0,1,1,.4.45Zm128-.2a.4.4,0,0,1-.39-.3.43.43,0,0,1,0-.1.4.4,0,1,1,.5.39Zm-.38-4a.4.4,0,0,1-.39-.3.43.43,0,0,1,0-.1.4.4,0,1,1,.5.39Zm.4-.4h0Zm-127.25.25L11,67a.4.4,0,0,1,.8.1ZM12,63.46h-.07a.4.4,0,0,1-.33-.46v0a.4.4,0,1,1,.39.5Zm126-.2a.4.4,0,1,1,.38-.53.41.41,0,0,1,0,.13A.4.4,0,0,1,138,63.26ZM12.86,59.53l-.13,0a.4.4,0,1,1,.53-.33.42.42,0,0,1,0,.08A.4.4,0,0,1,12.86,59.53Zm124.24-.2a.4.4,0,1,1,.38-.53v0a.4.4,0,0,1-.29.49ZM14,55.66l-.13,0a.4.4,0,1,1,.52-.29v0A.4.4,0,0,1,14,55.66Zm122-.19a.4.4,0,1,1,.38-.53v0a.4.4,0,0,1-.29.49ZM15.34,51.86a.4.4,0,1,1,.39-.31l0,.08A.4.4,0,0,1,15.34,51.86Zm119.26-.18a.4.4,0,0,1-.36-.22l0-.05a.4.4,0,1,1,.38.28ZM16.93,48.16a.4.4,0,0,1-.36-.58h0a.4.4,0,1,1,.36.58ZM133,48a.4.4,0,0,1-.34-.18.42.42,0,0,1,0-.1A.4.4,0,1,1,133,48ZM18.76,44.56A.4.4,0,0,1,18.4,44l0,0a.4.4,0,1,1,.33.63Zm112.39-.15a.4.4,0,1,1,.33-.63.42.42,0,0,1,0,.1.4.4,0,0,1-.25.51ZM20.82,41.09a.4.4,0,1,1,.36-.22l0,0A.4.4,0,0,1,20.82,41.09ZM129.09,41a.4.4,0,1,1,.33-.63h0a.4.4,0,0,1-.33.63Zm-106-3.19a.4.4,0,0,1-.33-.63l.05-.06a.4.4,0,1,1,.28.69Zm103.74-.13a.4.4,0,0,1-.28-.12l-.05-.06a.4.4,0,1,1,.34.18ZM25.55,34.58a.4.4,0,0,1-.33-.63l.08-.09a.4.4,0,1,1,.25.72Zm98.8-.12a.4.4,0,0,1-.22-.07.41.41,0,0,1-.11-.11.4.4,0,1,1,.34.18Zm-96.14-2.9a.4.4,0,1,1,.34-.18l-.08.09A.4.4,0,0,1,28.21,31.55Zm93.47-.12a.4.4,0,1,1,.28-.69h0a.4.4,0,0,1-.28.69ZM31.06,28.7a.4.4,0,1,1,.31-.15l-.06.06A.4.4,0,0,1,31.06,28.7Zm87.77-.11a.4.4,0,1,1,.28-.69h0a.4.4,0,0,1-.28.69ZM34.07,26a.4.4,0,1,1,.29-.12l0,0A.4.4,0,0,1,34.07,26Zm81.73-.1a.4.4,0,1,1,.22-.74.41.41,0,0,1,.11.11.4.4,0,0,1-.33.63ZM37.25,23.56a.4.4,0,1,1,.25-.09l0,0A.4.4,0,0,1,37.25,23.56Zm75.37-.1a.4.4,0,1,1,.22-.74l.06.05a.4.4,0,0,1-.28.69Zm-72-2.17a.4.4,0,1,1,.25-.09l0,0A.4.4,0,0,1,40.58,21.29Zm68.71-.09-.13,0-.1,0a.4.4,0,1,1,.22.07ZM44,19.24a.4.4,0,0,1-.22-.74l.1,0a.4.4,0,0,1,.31.74A.4.4,0,0,1,44,19.24Zm61.78-.08-.13,0-.1,0a.4.4,0,1,1,.22.07ZM47.62,17.4a.4.4,0,1,1,.22-.07l-.1,0Zm54.6-.08a.4.4,0,1,1,.13-.78l.1,0a.4.4,0,0,1-.22.74ZM51.3,15.8a.4.4,0,1,1,.2-.05l-.07,0Zm47.21-.07a.4.4,0,1,1,.13-.78l.05,0a.4.4,0,0,1-.18.76ZM55.22,14.41,55,13.64a.4.4,0,1,1,.25.76Zm39.5,0h-.13a.4.4,0,1,1,.13,0ZM59.09,13.28l-.25-.76a.4.4,0,1,1,.25.76Zm31.76,0h-.13a.4.4,0,1,1,.13,0Zm-28-.83a.4.4,0,0,1-.11-.79l.11,0a.4.4,0,0,1,.07.8Zm24,0-.13,0a.4.4,0,1,1,.13,0Zm-20.05-.59a.4.4,0,1,1,.11,0Zm16.07,0h0a.4.4,0,0,1,0-.8H83a.4.4,0,0,1-.1.79Zm-12.06-.36a.4.4,0,1,1,.13,0Zm8.05,0h0a.4.4,0,0,1,0-.8H79a.4.4,0,0,1-.1.79Zm-4-.12a.4.4,0,0,1,0-.8h0a.4.4,0,1,1,0,.8Z" style="fill:#fff;stroke:#fff;stroke-miterlimit:10"/><path d="M49.41,82.81h3.06a3,3,0,0,1,2.32.83,3.45,3.45,0,0,1,.77,2.43v1.3a3.45,3.45,0,0,1-.77,2.43,3,3,0,0,1-2.32.83h-1V96H49.41Zm3.06,5.94a1,1,0,0,0,.76-.28,1.43,1.43,0,0,0,.25-1V85.95a1.43,1.43,0,0,0-.25-1,1,1,0,0,0-.76-.28h-1v4.06Z" style="fill:#fff"/><path d="M57.83,82.81h3.08a2.65,2.65,0,0,1,3.08,3v.81q0,2.06-1.36,2.6v0a1.62,1.62,0,0,1,1.07.92A4.66,4.66,0,0,1,64,92.1v2.32a8.79,8.79,0,0,0,0,.92,2.29,2.29,0,0,0,.19.69H62.11a3,3,0,0,1-.15-.6,9,9,0,0,1,0-1V92a2.05,2.05,0,0,0-.29-1.26,1.24,1.24,0,0,0-1-.36H59.9V96H57.83Zm2.83,5.66a1.25,1.25,0,0,0,.93-.32,1.52,1.52,0,0,0,.31-1.08v-1a1.68,1.68,0,0,0-.25-1,1,1,0,0,0-.8-.32H59.9v3.77Z" style="fill:#fff"/><path d="M66.57,82.81h2.08V96H66.57Z" style="fill:#fff"/><path d="M72,95.36a3.4,3.4,0,0,1-.78-2.4v-7.1a3.4,3.4,0,0,1,.78-2.4,3.47,3.47,0,0,1,4.55,0,3.41,3.41,0,0,1,.78,2.4v1.4h-2V85.74q0-1.23-1-1.23t-1,1.23v7.38q0,1.21,1,1.21t1-1.21v-2h2V93a3.4,3.4,0,0,1-.78,2.4,3.47,3.47,0,0,1-4.55,0Z" style="fill:#fff"/><path d="M79.68,82.81h2.08V96H79.68Z" style="fill:#fff"/><path d="M84.43,82.81H87l2,7.91h0V82.81h1.85V96H88.81l-2.49-9.64h0V96H84.43Z" style="fill:#fff"/><path d="M94.27,95.35a3.5,3.5,0,0,1-.79-2.46V85.95a3.5,3.5,0,0,1,.79-2.46,3.52,3.52,0,0,1,4.6,0,3.5,3.5,0,0,1,.79,2.46v1.13h-2V85.81q0-1.3-1.08-1.3t-1.08,1.3V93q0,1.28,1.08,1.28T97.7,93V90.46h-1V88.57h3v4.32a3.5,3.5,0,0,1-.79,2.46,3.52,3.52,0,0,1-4.6,0Z" style="fill:#fff"/><path d="M25.95,53.48h7.42v2.18H30.86v13.1h-2.4V55.66H25.95Z" style="fill:#fff"/><path d="M39.88,68.76l-.09-.28a2.15,2.15,0,0,1-.08-.33,4,4,0,0,1,0-.5q0-.31,0-.76v-2.4A2.35,2.35,0,0,0,39.29,63a1.5,1.5,0,0,0-1.2-.44h-.83v6.22h-2.4V53.48h3.62a3.64,3.64,0,0,1,2.72.87A3.68,3.68,0,0,1,42,57v1.2q0,2.36-1.57,3.1a2.15,2.15,0,0,1,1.26,1.21,5.47,5.47,0,0,1,.34,2V66.9a9.82,9.82,0,0,0,0,1,3.19,3.19,0,0,0,.22.86Zm-2.62-13.1v4.69h.94A1.51,1.51,0,0,0,39.25,60a1.68,1.68,0,0,0,.38-1.27V57.23a1.94,1.94,0,0,0-.29-1.2,1.11,1.11,0,0,0-.93-.37Z" style="fill:#fff"/><path d="M51.84,68.76H49.42L49,66H46.05l-.42,2.77h-2.2l2.44-15.28h3.51Zm-5.48-4.85h2.31l-1.16-7.73Z" style="fill:#fff"/><path d="M55.53,57.69V68.76H53.37V53.48h3l2.47,9.15V53.48H61V68.76H58.52Z" style="fill:#fff"/><path d="M62.84,57.15a4.15,4.15,0,0,1,.88-2.85,4,4,0,0,1,5.3,0,4.15,4.15,0,0,1,.88,2.85v.48H67.64V57a1.7,1.7,0,0,0-.32-1.17,1.32,1.32,0,0,0-1.77,0A1.7,1.7,0,0,0,65.24,57a2.7,2.7,0,0,0,.35,1.39,5.75,5.75,0,0,0,.87,1.13q.52.54,1.12,1.07a10.75,10.75,0,0,1,1.12,1.17,6,6,0,0,1,.87,1.44,4.76,4.76,0,0,1,.35,1.9A4.08,4.08,0,0,1,69,67.94a4.09,4.09,0,0,1-5.35,0,4.08,4.08,0,0,1-.91-2.85v-.94H65v1.09a1.58,1.58,0,0,0,.34,1.16,1.42,1.42,0,0,0,1.81,0,1.58,1.58,0,0,0,.34-1.16,2.71,2.71,0,0,0-.35-1.39,5.8,5.8,0,0,0-.87-1.14q-.52-.53-1.12-1.07a10.61,10.61,0,0,1-1.12-1.17A5.93,5.93,0,0,1,63.19,59,4.75,4.75,0,0,1,62.84,57.15Z" style="fill:#fff"/><path d="M75.28,53.48a3.49,3.49,0,0,1,2.7,1,4,4,0,0,1,.88,2.82v2A4,4,0,0,1,78,62.06a3.49,3.49,0,0,1-2.7,1H74.15v5.74h-2.4V53.48Zm-1.14,2.18v5.17h1.14a1.18,1.18,0,0,0,.87-.31,1.61,1.61,0,0,0,.31-1.13V57.1A1.61,1.61,0,0,0,76.16,56a1.18,1.18,0,0,0-.87-.31Z" style="fill:#fff"/><path d="M87.9,68.76H85.48L85.06,66H82.12l-.42,2.77H79.5l2.44-15.28h3.51Zm-5.48-4.85h2.31l-1.16-7.73Z" style="fill:#fff"/><path d="M94.47,68.76l-.09-.28a2.15,2.15,0,0,1-.08-.33,4,4,0,0,1,0-.5q0-.31,0-.76v-2.4A2.35,2.35,0,0,0,93.88,63a1.5,1.5,0,0,0-1.2-.44h-.83v6.22h-2.4V53.48h3.62a3.64,3.64,0,0,1,2.72.87A3.68,3.68,0,0,1,96.63,57v1.2q0,2.36-1.57,3.1a2.15,2.15,0,0,1,1.26,1.21,5.47,5.47,0,0,1,.34,2V66.9a9.82,9.82,0,0,0,0,1,3.19,3.19,0,0,0,.22.86Zm-2.62-13.1v4.69h.94A1.51,1.51,0,0,0,93.85,60a1.68,1.68,0,0,0,.38-1.27V57.23a1.94,1.94,0,0,0-.29-1.2,1.11,1.11,0,0,0-.93-.37Z" style="fill:#fff"/><path d="M101.06,59.92h3.3V62.1h-3.3v4.48h4.15v2.18H98.66V53.48h6.55v2.18h-4.15Z" style="fill:#fff"/><path d="M109.27,57.69V68.76h-2.16V53.48h3l2.47,9.15V53.48h2.14V68.76h-2.47Z" style="fill:#fff"/><path d="M116.19,53.48h7.42v2.18H121.1v13.1h-2.4V55.66h-2.51Z" style="fill:#fff"/></svg>