<svg xmlns="http://www.w3.org/2000/svg" viewBox="0 0 150 150.25"><title>whatsapp</title><rect x="3.38" y="2.91" width="143.23" height="143.23" rx="24.48" ry="24.48" style="fill:#32ba46"/><path d="M75,129.37A54.61,54.61,0,0,1,47.65,122l-21.37,7.36,4.39-22.63A54.21,54.21,0,0,1,20.16,74.53,54.84,54.84,0,1,1,75,129.37ZM48.63,113l1.65,1a46.75,46.75,0,1,0-12-10.85l1.14,1.47L37,117.05Z" style="fill:#fff"/><path d="M47.31,53.46s3.22-5.62,5.84-5.95,6-.32,6.91,1.39,5,11.68,5,11.68A3.92,3.92,0,0,1,64.67,64,33.35,33.35,0,0,1,61.19,68a3,3,0,0,0,0,3.54A64.5,64.5,0,0,0,68.91,81c4.29,4.3,12.53,7.36,12.53,7.36a2.51,2.51,0,0,0,1.93-.59C84.12,87,88.19,82,88.19,82a2.86,2.86,0,0,1,3.48-.7c2.17,1,11.57,5.68,11.57,5.68a2,2,0,0,1,1.1,2.06c0,1.66-.67,5.72-2,7.1s-5.39,5.61-11.43,5.61S70.46,96.8,62.8,89.14,48.33,73.71,46.73,66.64,45.33,56.37,47.31,53.46Z" style="fill:#fff"/></svg>